<?xml version="1.0" standalone="no"?><!DOCTYPE svg PUBLIC "-//W3C//DTD SVG 1.1//EN" "http://www.w3.org/Graphics/SVG/1.1/DTD/svg11.dtd"><svg t="1571235685223" class="icon" viewBox="0 0 1024 1024" version="1.1" xmlns="http://www.w3.org/2000/svg" p-id="2100" xmlns:xlink="http://www.w3.org/1999/xlink" width="200" height="200"><defs><style type="text/css"></style></defs><path d="M883.688775 348.866761C863.106914 298.969474 833.644292 254.161372 796.122275 215.688289 758.600257 177.215206 714.898689 147.005797 666.234877 125.901088 615.839838 104.046088 562.320421 92.963876 507.16394 92.963876 452.007459 92.963876 398.488044 104.046088 348.095273 125.901088 299.431459 147.004634 255.732162 177.215206 218.20901 215.688289 180.685858 254.161372 151.224369 298.969474 130.641374 348.866761 109.326636 400.539158 98.519514 455.413961 98.519514 511.968486 98.519514 568.524174 109.32777 623.398977 130.641374 675.071374 151.224369 724.968661 180.686992 769.776764 218.20901 808.249848 255.731027 846.722931 299.431459 876.932338 348.095273 898.037048 398.489177 919.892049 452.007459 930.97426 507.16394 930.97426 562.321556 930.97426 615.840971 919.892049 666.234877 898.037048 714.898689 876.933501 758.599123 846.724093 796.122275 808.249848 833.643157 769.777928 863.105781 724.968661 883.688775 675.071374 905.003513 623.398977 915.811769 568.524174 915.811769 511.968486 915.811769 455.413961 905.004648 400.537994 883.688775 348.866761L883.688775 348.866761ZM343.10353 356.744241C373.100497 356.744241 397.418222 381.67718 397.418222 412.435639 397.418222 443.191773 373.100497 468.125876 343.10353 468.125876 313.106565 468.125876 288.789974 443.191773 288.789974 412.435639 288.789974 381.67718 313.106565 356.744241 343.10353 356.744241L343.10353 356.744241ZM702.047224 692.309464 312.285196 692.309464C300.103076 692.309464 290.227368 682.183438 290.227368 669.69254 290.227368 657.201642 300.103076 647.075615 312.285196 647.075615L702.047224 647.075615C714.229342 647.075615 724.10505 657.201642 724.10505 669.69254 724.10505 682.183438 714.230477 692.309464 702.047224 692.309464L702.047224 692.309464ZM671.227753 468.125876C641.231922 468.125876 616.914197 443.191773 616.914197 412.435639 616.914197 381.67718 641.231922 356.744241 671.227753 356.744241 701.22472 356.744241 725.542445 381.67718 725.542445 412.435639 725.54358 443.191773 701.22472 468.125876 671.227753 468.125876L671.227753 468.125876Z" p-id="2101" fill="#ebdf02"></path></svg>