<?xml version="1.0" standalone="no"?><!DOCTYPE svg PUBLIC "-//W3C//DTD SVG 1.1//EN" "http://www.w3.org/Graphics/SVG/1.1/DTD/svg11.dtd"><svg t="1571235671714" class="icon" viewBox="0 0 1024 1024" version="1.1" xmlns="http://www.w3.org/2000/svg" p-id="1738" xmlns:xlink="http://www.w3.org/1999/xlink" width="200" height="200"><defs><style type="text/css"></style></defs><path d="M895.039579 340.536615C873.902384 290.559904 843.644807 245.680481 805.110378 207.146159 766.575948 168.611838 721.695235 138.354344 671.718387 117.216042 619.964763 95.326255 565.001297 84.226404 508.355431 84.226404 451.710729 84.226404 396.748429 95.326255 344.994806 117.216042 295.017957 138.353179 250.139573 168.611838 211.603979 207.146159 173.068386 245.680481 142.811973 290.559904 121.673613 340.536615 99.783764 392.291259 88.685047 447.253408 88.685047 503.897953 88.685047 560.543662 99.78493 615.505809 121.673613 667.260453 142.811973 717.237164 173.069551 762.116588 211.603979 800.65091 250.138408 839.185232 295.017957 869.442725 344.994806 890.581027 396.749594 912.470815 451.710729 923.570666 508.355431 923.570666 565.002463 923.570666 619.965928 912.470815 671.718387 890.581027 721.695235 869.44389 766.574783 839.186397 805.110378 800.65091 843.643642 762.117753 873.901219 717.237164 895.039579 667.260453 916.929427 615.505809 928.02931 560.543662 928.02931 503.897953 928.02931 447.253408 916.929427 392.290094 895.039579 340.536615L895.039579 340.536615ZM339.868378 348.425468C370.674717 348.425468 395.648577 373.398095 395.648577 404.205513 395.648577 435.0106 370.674717 459.984391 339.868378 459.984391 309.06204 459.984391 284.088179 435.0106 284.088179 404.205513 284.088179 373.398095 309.06204 348.425468 339.868378 348.425468L339.868378 348.425468ZM726.676027 639.025563C702.320831 671.785678 669.895009 698.98014 632.9055 717.667085 594.769534 736.933081 551.700547 747.117167 508.355431 747.117167 465.01381 747.117167 421.945989 736.934246 383.808858 717.66825 346.819349 698.981305 314.393524 671.788008 290.038331 639.029058 282.573552 628.989443 284.661406 614.798598 294.702216 607.333839 304.744189 599.869082 318.932744 601.958096 326.396357 611.997711 368.207039 668.235637 436.230082 701.811319 508.355431 701.811319 580.483111 701.811319 648.507318 668.235637 690.316835 611.994216 697.781612 601.953434 711.970168 599.864421 722.012142 607.330344 732.051785 614.795103 734.140805 628.983618 726.676027 639.025563L726.676027 639.025563ZM676.845979 459.985556C646.040806 459.985556 621.066945 435.011765 621.066945 404.206678 621.066945 373.39926 646.040806 348.426633 676.845979 348.426633 707.652318 348.426633 732.626179 373.39926 732.626179 404.206678 732.626179 435.011765 707.652318 459.985556 676.845979 459.985556L676.845979 459.985556Z" p-id="1739" fill="#1afa29"></path></svg>