<?xml version="1.0" standalone="no"?><!DOCTYPE svg PUBLIC "-//W3C//DTD SVG 1.1//EN" "http://www.w3.org/Graphics/SVG/1.1/DTD/svg11.dtd"><svg t="1571235678616" class="icon" viewBox="0 0 1024 1024" version="1.1" xmlns="http://www.w3.org/2000/svg" p-id="1919" xmlns:xlink="http://www.w3.org/1999/xlink" width="200" height="200"><defs><style type="text/css"></style></defs><path d="M889.708273 351.374597C868.78338 301.882979 838.829715 257.43917 800.682329 219.278876 762.534944 181.118582 718.105018 151.154778 668.630142 130.221652 617.396338 108.544335 562.984933 97.552222 506.908023 97.552222 450.832268 97.552222 396.420861 108.544335 345.187058 130.221652 295.712181 151.153625 251.284561 181.118582 213.136024 219.278876 174.987486 257.43917 145.034972 301.882979 124.108928 351.374597 102.438944 402.626893 91.451703 457.05556 91.451703 513.150292 91.451703 569.246177 102.440097 623.674842 124.108928 674.927138 145.034972 724.418758 174.988639 768.862566 213.136024 807.02286 251.283408 845.183153 295.712181 875.146957 345.187058 896.080084 396.422014 917.757401 450.831114 928.749513 506.908023 928.749513 562.984933 928.749513 617.397492 917.757401 668.630142 896.080084 718.105018 875.148111 762.533792 845.184307 800.682329 807.02286 838.828561 768.86372 868.782227 724.418758 889.708273 674.927138 911.378256 623.674842 922.36665 569.246177 922.36665 513.150292 922.36665 457.05556 911.37941 402.625739 889.708273 351.374597L889.708273 351.374597ZM340.112119 359.186877C370.609036 359.186877 395.332057 383.917111 395.332057 414.425501 395.332057 444.931584 370.609036 469.662971 340.112119 469.662971 309.615205 469.662971 284.892184 444.931584 284.892184 414.425501 284.893338 383.917111 309.615205 359.186877 340.112119 359.186877L340.112119 359.186877ZM718.417589 737.768054C708.478785 745.159202 694.431587 743.091618 687.040633 733.14945 639.659168 669.397047 562.931876 656.01429 506.909177 656.01429 450.886477 656.01429 374.158032 669.397047 326.776567 733.152911 322.375212 739.075292 315.612858 742.203204 308.761692 742.203204 304.111203 742.203204 299.420346 740.762126 295.399612 737.772669 285.460808 730.380367 283.39277 716.329569 290.782572 706.385094 314.555194 674.397551 346.280475 649.953456 385.077222 633.734697 420.925891 618.74818 461.916394 611.14935 506.909177 611.14935 551.900807 611.14935 592.892464 618.74818 628.739978 633.734697 667.536724 649.952302 699.262005 674.395244 723.035781 706.381633 730.424429 716.323801 728.356393 730.376905 718.417589 737.769207L718.417589 737.768054ZM673.705079 469.664125C643.209318 469.664125 618.486298 444.932738 618.486298 414.426655 618.486298 383.918264 643.209318 359.188031 673.705079 359.188031 704.201996 359.188031 728.925017 383.918264 728.925017 414.426655 728.92617 444.932738 704.201996 469.664125 673.705079 469.664125L673.705079 469.664125Z" p-id="1920" fill="#d81e06"></path></svg>