<?xml version="1.0" standalone="no"?><!DOCTYPE svg PUBLIC "-//W3C//DTD SVG 1.1//EN" "http://www.w3.org/Graphics/SVG/1.1/DTD/svg11.dtd"><svg t="1571235762055" class="icon" viewBox="0 0 1040 1024" version="1.1" xmlns="http://www.w3.org/2000/svg" p-id="2894" xmlns:xlink="http://www.w3.org/1999/xlink" width="203.125" height="200"><defs><style type="text/css"></style></defs><path d="M575.916287 234.03028 322.807491 234.03028C292.977062 234.03028 268.569932 258.364567 268.569932 288.105968L268.569932 756.762128C268.569932 786.503529 292.977062 810.837816 322.807491 810.837816L575.916287 810.837816C605.746716 810.837816 630.153846 786.503529 630.153846 756.762128L630.153846 288.105968C630.153846 258.364567 605.746716 234.03028 575.916287 234.03028L575.916287 234.03028ZM449.362175 774.787167C429.392341 774.787167 413.203612 758.646752 413.203612 738.736517 413.203612 718.826283 429.392341 702.685869 449.362175 702.685869 469.332009 702.685869 485.520738 718.826283 485.520738 738.736517 485.520738 758.646752 469.332009 774.787167 449.362175 774.787167L449.362175 774.787167ZM593.995855 666.63579 304.729068 666.63579 304.729068 306.131009 593.995855 306.131009 593.995855 666.63579 593.995855 666.63579Z" p-id="2895" fill="#2c2c2c"></path><path d="M652.314914 323.374132C628.96047 330.769616 612.033846 352.617327 612.033846 378.418463 612.033846 410.300506 637.87935 436.146009 669.761393 436.146009 693.926816 436.146009 714.624195 421.297544 723.227588 400.226559L723.227588 400.226559 801.635163 400.226559C811.32864 400.226559 819.2 392.415506 819.2 382.780082 819.2 373.077482 811.335954 365.333605 801.635163 365.333605L725.999648 365.333605C721.388364 345.435278 706.488611 329.479626 687.20787 323.374132L687.20787 230.24176C687.20787 220.548283 679.396815 212.676923 669.761393 212.676923 660.058793 212.676923 652.314914 220.540969 652.314914 230.24176L652.314914 323.374132Z" p-id="2896" fill="#2c2c2c"></path></svg>